<?xml version="1.0" encoding="iso-8859-1"?>
<!-- Generator: Adobe Illustrator 19.0.0, SVG Export Plug-In . SVG Version: 6.00 Build 0)  -->
<svg version="1.1" id="Layer_1" xmlns="http://www.w3.org/2000/svg" xmlns:xlink="http://www.w3.org/1999/xlink" x="0px" y="0px"
	 viewBox="0 0 512 512" style="enable-background:new 0 0 512 512;" xml:space="preserve">
<g>
	<g>
		<path d="M363.975,154.131v-3.309c0-9.807-3.818-19.036-10.776-26.016c-6.952-6.932-16.182-10.75-25.99-10.75
			c-20.28,0-36.778,16.493-36.778,36.766v3.022h-3.122c-86.786,0-157.391,70.606-157.391,157.391v61.73H12.488
			C5.591,372.966,0,378.557,0,385.454c0,6.897,5.591,12.488,12.488,12.488h129.917h103.113c0.009,0,0.017,0.001,0.026,0.001
			c0.008,0,0.016-0.001,0.024-0.001h161.508c0.008,0,0.016,0.001,0.024,0.001c0.009,0,0.018-0.001,0.026-0.001h92.385
			c6.897,0,12.488-5.591,12.488-12.488v-74.219C512,227.596,446.417,158.996,363.975,154.131z M315.406,150.823h0.001
			c0-6.5,5.294-11.789,11.802-11.789c3.148,0,6.116,1.229,8.327,3.434c2.232,2.238,3.461,5.205,3.461,8.354v3.022h-23.591V150.823z
			 M395.407,372.967H257.22c-1.036-20.849-1.577-67.405,10.188-111.056c1.796-6.66-2.148-13.512-8.808-15.308
			c-6.656-1.796-13.514,2.148-15.308,8.808c-12.505,46.388-12.214,94.555-11.106,117.556h-77.292v-61.73
			c0-73.014,59.401-132.415,132.415-132.415h15.61h25.719C397.406,215.141,397.223,335.504,395.407,372.967z M487.023,372.967
			h-66.545c1.838-36.94,1.604-138.061-50.151-193.208c65.63,7.799,116.695,63.783,116.695,131.477V372.967z"/>
	</g>
</g>
<g>
	<g>
		<path d="M267.839,208.807c-6.894,0-12.488,5.595-12.488,12.488s5.595,12.488,12.488,12.488c6.894,0,12.488-5.595,12.488-12.488
			S274.733,208.807,267.839,208.807z"/>
	</g>
</g>
<g>
</g>
<g>
</g>
<g>
</g>
<g>
</g>
<g>
</g>
<g>
</g>
<g>
</g>
<g>
</g>
<g>
</g>
<g>
</g>
<g>
</g>
<g>
</g>
<g>
</g>
<g>
</g>
<g>
</g>
</svg>
