<?xml version="1.0" encoding="iso-8859-1"?>
<!-- Generator: Adobe Illustrator 19.0.0, SVG Export Plug-In . SVG Version: 6.00 Build 0)  -->
<svg version="1.1" id="Capa_1" xmlns="http://www.w3.org/2000/svg" xmlns:xlink="http://www.w3.org/1999/xlink" x="0px" y="0px"
	 viewBox="0 0 432 432" style="enable-background:new 0 0 432 432;" xml:space="preserve">
<g>
	<path d="M207.302,159.555h8.897l21.446,21.447c1.563,1.562,3.609,2.343,5.657,2.343s4.095-0.781,5.657-2.343
		c3.124-3.125,3.124-8.19,0-11.314l-10.133-10.133h16.303c4.418,0,8-3.582,8-8c0-4.418-3.582-8-8-8h-16.2l10.03-10.029
		c3.124-3.124,3.124-8.189,0-11.314c-3.125-3.124-8.189-3.124-11.314,0l-21.343,21.343h-9l-8.999-15.586l4.418-7.653l29.296-7.85
		c4.268-1.143,6.801-5.53,5.657-9.798s-5.531-6.8-9.798-5.657l-13.842,3.709l8.152-14.12c2.21-3.827,0.898-8.719-2.928-10.928
		c-3.827-2.209-8.719-0.898-10.928,2.928l-8.1,14.03l-3.671-13.7c-1.144-4.268-5.527-6.8-9.798-5.657
		c-4.268,1.144-6.801,5.53-5.657,9.798l7.812,29.156l-4.577,7.928h-17.842l-4.496-7.787l7.85-29.297
		c1.144-4.268-1.389-8.654-5.657-9.798c-4.265-1.144-8.654,1.39-9.798,5.657l-3.709,13.841l-8.152-14.119
		c-2.209-3.826-7.103-5.137-10.928-2.928c-3.826,2.209-5.137,7.102-2.928,10.928l8.1,14.03l-13.701-3.671
		c-4.264-1.145-8.654,1.389-9.798,5.657c-1.144,4.268,1.389,8.655,5.657,9.798l29.155,7.812l4.685,8.115l-8.754,15.163h-9.37
		l-21.344-21.343c-3.124-3.124-8.189-3.124-11.313,0c-3.125,3.125-3.125,8.19,0,11.314l10.03,10.029h-16.2c-4.418,0-8,3.582-8,8
		c0,4.418,3.582,8,8,8h16.303l-10.133,10.133c-3.125,3.124-3.125,8.189,0,11.314c1.562,1.562,3.609,2.343,5.657,2.343
		s4.095-0.781,5.657-2.343l21.447-21.447h9.267l8.784,15.215l-4.715,8.166l-29.155,7.812c-4.268,1.144-6.801,5.53-5.657,9.798
		c0.958,3.574,4.19,5.931,7.723,5.931c0.685,0,1.382-0.088,2.075-0.274l13.701-3.671l-8.1,14.03
		c-2.209,3.827-0.898,8.719,2.928,10.928c1.26,0.728,2.635,1.073,3.993,1.073c2.765,0,5.454-1.435,6.936-4.001l8.152-14.119
		l3.709,13.841c0.958,3.574,4.19,5.932,7.723,5.932c0.685,0,1.382-0.089,2.075-0.274c4.268-1.144,6.801-5.53,5.657-9.798
		l-7.85-29.296l4.556-7.891h17.724l4.637,8.031l-7.812,29.156c-1.144,4.268,1.389,8.655,5.657,9.798
		c0.693,0.186,1.39,0.274,2.075,0.274c3.532,0,6.765-2.357,7.723-5.932l3.671-13.7l8.1,14.029c1.482,2.567,4.171,4.001,6.936,4.001
		c1.357,0,2.733-0.346,3.993-1.073c3.826-2.209,5.138-7.102,2.928-10.929l-8.152-14.119l13.842,3.709
		c0.693,0.186,1.39,0.274,2.075,0.274c3.532,0,6.765-2.357,7.723-5.931c1.144-4.268-1.39-8.655-5.657-9.798l-29.296-7.85
		l-4.448-7.705L207.302,159.555z M166.771,166.955l-8.891-15.4l8.891-15.4h17.783l8.891,15.4l-8.891,15.4H166.771z"/>
	<path d="M223.477,320h-24c-4.418,0-8,3.582-8,8s3.582,8,8,8h24c4.418,0,8-3.582,8-8S227.895,320,223.477,320z"/>
	<path d="M379.679,215.681c8.282-8.283,12.844-19.332,12.844-31.113s-4.562-22.83-12.844-31.112l-5.656-5.657
		c-8.283-8.282-19.332-12.844-31.113-12.844s-22.83,4.562-31.113,12.844l-16.318,16.319V64c0-35.29-28.71-64-64-64h-120
		c-35.29,0-64,28.71-64,64v274.749c-5.033,7.153-8,15.86-8,25.251v24c0,24.262,19.738,44,44,44h176c24.262,0,44-19.738,44-44v-24
		c0-9.392-2.967-18.098-8-25.251v-38.867L379.679,215.681z M287.478,388c0,15.439-12.561,28-28,28h-176c-15.439,0-28-12.561-28-28
		v-24c0-15.439,12.561-28,28-28h84c4.418,0,8-3.582,8-8s-3.582-8-8-8h-84c-7.2,0-13.995,1.75-20,4.828V64c0-26.467,21.533-48,48-48
		h120c26.467,0,48,21.533,48,48v119.432c0,3.235,1.949,6.153,4.938,7.391c2.991,1.239,6.431,0.553,8.719-1.734l29.976-29.975
		c5.26-5.261,12.292-8.158,19.799-8.158s14.539,2.897,19.799,8.158l5.657,5.657c5.26,5.261,8.157,12.292,8.157,19.799
		c0,7.507-2.897,14.539-8.158,19.799l-86.544,86.544c-1.5,1.5-2.343,3.535-2.343,5.657v28.26c-6.005-3.079-12.8-4.828-20-4.828h-4
		c-4.418,0-8,3.582-8,8s3.582,8,8,8h4c15.439,0,28,12.561,28,28V388z"/>
</g>
<g>
</g>
<g>
</g>
<g>
</g>
<g>
</g>
<g>
</g>
<g>
</g>
<g>
</g>
<g>
</g>
<g>
</g>
<g>
</g>
<g>
</g>
<g>
</g>
<g>
</g>
<g>
</g>
<g>
</g>
</svg>
