<?xml version="1.0" encoding="utf-8"?>
<!-- Uploaded to SVGRepo https://www.svgrepo.com -->
<!DOCTYPE svg PUBLIC "-//W3C//DTD SVG 1.1//EN" "http://www.w3.org/Graphics/SVG/1.1/DTD/svg11.dtd">
<svg width="1000px" height="1000px" viewBox="0 0 1000 1000" version="1.1" xmlns="http://www.w3.org/2000/svg" xmlns:xlink="http://www.w3.org/1999/xlink" x="0px" y="0px" enable-background="new 0 0 1000 1000" xml:space="preserve">

<g><g transform="translate(0.000000,511.000000) scale(0.100000,-0.100000)"><path d="M2886.3,4377.7c-136.3-80.7-420.5-247.7-629.8-366.8c-796.9-462.8-1242.4-877.5-1728.2-1609.1c-170.9-261.1-376.4-622.2-416.7-737.4c-32.6-97.9,3.8-180.5,109.5-245.8c44.2-26.9,497.3-261.2,1008.1-518.5c781.5-395.6,937.1-468.5,983.1-457c34.6,9.6,74.9,49.9,122.9,119.1c38.4,59.5,71,103.7,74.9,101.8c23-25-190.1-2302.4-387.9-4145.8c-38.4-364.8-65.3-685.5-57.6-714.3c28.8-115.2-151.7-109.5,3043.6-109.5h2918.8l53.8,46.1l51.9,46.1l-51.9,697c-138.3,1826.1-282.3,3898-282.3,4067v78.7l92.2-96c53.8-55.7,109.5-96,132.5-96c38.4,0,445.5,217,1470.9,785.4c387.9,217,495.4,284.2,505,320.7c13.4,53.8-101.8,278.4-330.3,645.2c-364.8,585.7-637.5,939-927.5,1205.9c-291.9,270.8-445.5,370.6-942.8,624.1c-259.2,130.6-547.3,282.3-641.4,336c-261.1,151.7-232.3,149.8-478.1,28.8c-251.6-121-591.4-238.1-877.5-301.5c-176.7-38.4-255.4-44.2-643.3-44.2c-386,0-468.5,5.8-658.6,44.2c-366.8,73-781.5,224.7-1044.6,380.2c-63.4,36.5-136.3,65.3-165.1,63.4C3160.9,4525.5,3024.5,4458.3,2886.3,4377.7z M3174.3,4033.9c151.7-313,460.9-695.1,722-892.9c167.1-126.7,468.5-270.8,681.7-324.5c220.8-55.7,620.2-61.4,821.9-11.5c531.9,132.5,1012,524.2,1367.2,1117.6c51.9,84.5,94.1,155.5,96,157.5c5.8,9.6,902.5-474.3,908.3-491.6c3.8-9.6-21.1-63.4-55.7-119.1c-144-243.9-259.2-570.3-328.4-933.2c-40.3-203.5-44.2-282.3-42.2-783.4c0-305.3,11.5-716.2,23-912.1c13.4-195.9,46.1-683.6,72.9-1084.9c78.8-1219.3,265-3633.1,284.2-3719.5c7.7-32.6-132.5-34.6-2717.1-34.6c-1497.8,0-2724.8,3.8-2724.8,7.7c0,3.8,42.2,405.2,96,889.1c316.8,2920.7,432.1,4462.6,384,5100.1c-46.1,626-190.1,1144.5-414.8,1503.5c-48,78.7-82.6,149.8-74.9,157.5c15.4,17.3,821.9,482,835.3,482C3114.8,4143.4,3143.6,4093.5,3174.3,4033.9z M3727.4,3951.4c430.1-167.1,906.3-240,1492-224.7c437.8,9.6,610.6,38.4,987,159.4c115.2,38.4,213.1,65.3,217,61.4c13.5-15.4-238.1-314.9-355.2-424.4c-326.4-299.6-677.8-453.2-1042.7-455.1c-418.6,0-804.6,169-1127.2,497.3C3760,3705.6,3531.5,4009,3564.1,4009C3571.8,4009,3646.7,3982.1,3727.4,3951.4z M2087.5,3394.5c142.1-217,276.5-626,339.9-1036.9c19.2-121,36.5-386,42.3-664.4l11.5-462.8l-169-228.5c-92.2-124.8-170.9-232.4-174.7-234.3c-5.8-7.7-1620.7,854.5-1647.5,881.4c-9.6,7.7,34.6,103.7,103.7,222.7c288,495.4,587.6,902.5,869.9,1180.9c159.4,157.5,506.9,437.8,541.5,437.8C2016.4,3490.5,2052.9,3448.3,2087.5,3394.5z M8199.5,3338.8c311.1-234.3,616.4-572.2,917.9-1019.6c144-213.1,432.1-691.3,420.5-700.9c-9.6-5.8-1480.5-810.3-1526.6-833.4c-38.4-19.2-51.9-5.8-192,184.3l-149.8,205.5l-23,338c-46.1,660.6,40.3,1219.3,257.3,1661c69.1,142.1,142.1,259.2,161.3,259.2C8070.9,3432.9,8132.3,3390.7,8199.5,3338.8z"/></g></g>
</svg>