<?xml version="1.0" standalone="no"?>
<svg version="1.1" xmlns="http://www.w3.org/2000/svg" xmlns:xlink="http://www.w3.org/1999/xlink" width="1000" height="1000"
  viewBox="0 0 1000 1000" style="stroke:rgb(128,128,128);stroke-width:1">

  <line x1="100" x2="100" y1="0" y2="1000" />
  <line x1="200" x2="200" y1="0" y2="1000" />
  <line x1="300" x2="300" y1="0" y2="1000" />
  <line x1="400" x2="400" y1="0" y2="1000" />
  <line x1="500" x2="500" y1="0" y2="1000" />
  <line x1="600" x2="600" y1="0" y2="1000" />
  <line x1="700" x2="700" y1="0" y2="1000" />
  <line x1="800" x2="800" y1="0" y2="1000" />
  <line x1="900" x2="900" y1="0" y2="1000" />
  <line x1="1000" x2="1000" y1="0" y2="1000" />

  <line y1="100" y2="100" x1="0" x2="1000" />
  <line y1="200" y2="200" x1="0" x2="1000" />
  <line y1="300" y2="300" x1="0" x2="1000" />
  <line y1="400" y2="400" x1="0" x2="1000" />
  <line y1="500" y2="500" x1="0" x2="1000" />
  <line y1="600" y2="600" x1="0" x2="1000" />
  <line y1="700" y2="700" x1="0" x2="1000" />
  <line y1="800" y2="800" x1="0" x2="1000" />
  <line y1="900" y2="900" x1="0" x2="1000" />
  <line y1="1000" y2="1000" x1="0" x2="1000" />

</svg>