<?xml version="1.0" encoding="iso-8859-1"?>
<!-- Generator: Adobe Illustrator 19.0.0, SVG Export Plug-In . SVG Version: 6.00 Build 0)  -->
<svg version="1.1" id="Capa_1" xmlns="http://www.w3.org/2000/svg" xmlns:xlink="http://www.w3.org/1999/xlink" x="0px" y="0px"
	 viewBox="0 0 448 448" style="enable-background:new 0 0 448 448;" xml:space="preserve">
<g>
	<path d="M104,288.205H80c-4.418,0-8,3.582-8,8s3.582,8,8,8h24c4.418,0,8-3.582,8-8S108.418,288.205,104,288.205z"/>
	<path d="M440,294.336v-14.131c0-21.471-17.292-41.409-38.547-44.446L296.81,220.81c-14.486-2.069-28.907-16.579-41.065-30.456
		l-59.213-68.565c-15.043-19.779-34.523-28.948-53.479-25.153l-97.244,19.448C24.961,120.255,8,140.944,8,162.205v132.131
		c-4.906,4.397-8,10.778-8,17.869v16c0,13.233,10.766,24,24,24h96c12.08,0,20.828-4.869,28.546-9.166
		c6.257-3.483,11.704-6.515,18.384-6.811l40.28,11.827c0.113,0.033,0.227,0.064,0.342,0.092c9.241,2.275,23.934,4.058,33.448,4.058
		h183c13.234,0,24-10.767,24-24v-16C448,305.114,444.906,298.733,440,294.336z M432,328.205c0,4.411-3.589,8-8,8H241
		c-8.089,0-21.522-1.622-29.458-3.553l-41.289-12.123c-0.732-0.215-1.491-0.324-2.254-0.324c-11.33,0-19.78,4.704-27.236,8.854
		c-6.889,3.834-12.837,7.146-20.764,7.146H24c-4.411,0-8-3.589-8-8v-16c0-4.411,3.589-8,8-8h24c4.418,0,8-3.582,8-8s-3.582-8-8-8H24
		v-126c0-13.791,11.425-27.727,24.947-30.432L64,128.763v95.442c0,17.645,14.355,32,32,32s32-14.355,32-32v-56c0-4.418-3.582-8-8-8
		s-8,3.582-8,8v56c0,8.822-7.178,16-16,16s-16-7.178-16-16v-98.642l32-6.4v17.041c0,4.418,3.582,8,8,8s8-3.582,8-8v-20.241
		l18.191-3.638c6.04-1.207,21.808-1.744,37.739,19.326c0.104,0.138,0.213,0.272,0.327,0.403l59.416,68.8
		c14.837,16.937,31.271,32.995,50.875,35.796l104.644,14.948c13.448,1.921,24.81,15.021,24.81,28.606v8H136c-4.418,0-8,3.582-8,8
		s3.582,8,8,8h288c4.411,0,8,3.589,8,8V328.205z"/>
</g>
<g>
</g>
<g>
</g>
<g>
</g>
<g>
</g>
<g>
</g>
<g>
</g>
<g>
</g>
<g>
</g>
<g>
</g>
<g>
</g>
<g>
</g>
<g>
</g>
<g>
</g>
<g>
</g>
<g>
</g>
</svg>
