<?xml version="1.0" encoding="iso-8859-1"?>
<!-- Generator: Adobe Illustrator 19.0.0, SVG Export Plug-In . SVG Version: 6.00 Build 0)  -->
<svg version="1.1" id="Layer_1" xmlns="http://www.w3.org/2000/svg" xmlns:xlink="http://www.w3.org/1999/xlink" x="0px" y="0px"
	 viewBox="0 0 512 512" style="enable-background:new 0 0 512 512;" xml:space="preserve">
<g transform="translate(1 1)">
	<g>
		<g>
			<path d="M502.467,178.2C408.6,178.2,331.8,101.4,331.8,7.533c0-5.12-3.413-8.533-8.533-8.533H186.733
				c-5.12,0-8.533,3.413-8.533,8.533C178.2,101.4,101.4,178.2,7.533,178.2c-5.12,0-8.533,3.413-8.533,8.533v315.733
				c0,5.12,3.413,8.533,8.533,8.533h494.933c5.12,0,8.533-3.413,8.533-8.533V186.733C511,181.613,507.587,178.2,502.467,178.2z
				 M493.933,493.933H16.067V195.267c97.28-4.267,174.933-82.773,179.2-179.2h119.467c4.267,97.28,82.773,174.933,179.2,179.2
				V493.933z"/>
			<path d="M80.067,451.267H58.733v-21.333c0-5.12-3.413-8.533-8.533-8.533s-8.533,3.413-8.533,8.533V459.8
				c0,5.12,3.413,8.533,8.533,8.533h29.867c5.12,0,8.533-3.413,8.533-8.533C88.6,454.68,85.187,451.267,80.067,451.267z"/>
			<path d="M50.2,383c5.12,0,8.533-3.413,8.533-8.533v-64c0-5.12-3.413-8.533-8.533-8.533s-8.533,3.413-8.533,8.533v64
				C41.667,379.587,45.08,383,50.2,383z"/>
			<path d="M50.2,263.533c5.12,0,8.533-3.413,9.387-8.533v-22.187c7.68-1.707,15.36-4.267,23.04-6.827
				c4.267-1.707,6.827-6.827,5.12-11.093s-6.827-6.827-11.093-5.12c-9.387,2.56-18.773,5.12-28.16,6.827
				c-4.267,0.853-6.827,4.267-6.827,8.533V255C41.667,260.12,45.08,263.533,50.2,263.533z"/>
			<path d="M192.707,129.56c-4.267-3.413-9.387-1.707-11.947,1.707c-13.653,19.627-30.72,36.693-50.347,50.347
				c-3.413,2.56-4.267,8.533-1.707,11.947c1.707,2.56,4.267,3.413,6.827,3.413c1.707,0,3.413-0.853,4.267-0.853
				c21.333-15.36,39.253-33.28,54.613-54.613C197.827,137.24,196.973,132.12,192.707,129.56z"/>
			<path d="M293.4,48.493c-0.853-4.267-4.267-6.827-8.533-6.827h-59.733c-4.267,0-7.68,2.56-8.533,6.827
				c-1.707,9.387-4.267,18.773-6.827,27.307c-1.707,5.12,0.853,9.387,5.12,11.093c5.12,1.707,9.387-0.853,11.093-5.12
				c2.56-7.68,5.12-15.36,6.827-23.04h45.227c1.707,7.68,4.267,15.36,6.827,23.04c0.853,3.413,4.267,5.973,7.68,5.973
				c0.853,0,1.707,0,2.56,0c4.267-1.707,6.827-6.827,5.12-11.093C297.667,67.267,295.107,57.88,293.4,48.493z"/>
			<path d="M328.387,130.413c-2.56-3.413-7.68-4.267-11.947-1.707c-3.413,2.56-4.267,7.68-1.707,11.947
				c15.36,21.333,33.28,39.253,54.613,54.613c1.707,0.853,3.413,1.707,5.12,1.707c2.56,0,5.12-0.853,5.973-4.267
				c3.413-4.267,1.707-9.387-1.707-11.947C359.107,167.107,342.04,150.04,328.387,130.413z"/>
			<path d="M428.227,225.133c7.68,2.56,15.36,5.12,23.04,6.827V255c0,5.12,3.413,8.533,8.533,8.533c5.12,0,8.533-3.413,8.533-8.533
				v-29.867c0-4.267-2.56-7.68-6.827-8.533c-8.533-1.707-17.92-4.267-27.307-7.68c-5.12-1.707-9.387,0.853-11.093,5.12
				C421.4,219.16,423.96,223.427,428.227,225.133z"/>
			<path d="M459.8,301.933c-5.12,0-8.533,3.413-8.533,8.533v64c0,5.12,3.413,8.533,8.533,8.533c5.12,0,8.533-3.413,8.533-8.533v-64
				C468.333,305.347,464.92,301.933,459.8,301.933z"/>
			<path d="M429.933,468.333H459.8c5.12,0,8.533-3.413,8.533-8.533v-29.867c0-5.12-3.413-8.533-8.533-8.533
				c-5.12,0-8.533,3.413-8.533,8.533v21.333h-21.333c-5.12,0-8.533,3.413-8.533,8.533C421.4,464.92,424.813,468.333,429.933,468.333
				z"/>
			<path d="M319.853,459.8c0,5.12,3.413,8.533,8.533,8.533H383c5.12,0,8.533-3.413,8.533-8.533c0-5.12-3.413-8.533-8.533-8.533
				h-54.613C323.267,451.267,319.853,454.68,319.853,459.8z"/>
			<path d="M282.307,451.267h-54.613c-5.12,0-8.533,3.413-8.533,8.533c0,5.12,3.413,8.533,8.533,8.533h54.613
				c4.267,0,8.533-3.413,8.533-8.533C290.84,454.68,287.427,451.267,282.307,451.267z"/>
			<path d="M181.613,451.267H127c-5.12,0-8.533,3.413-8.533,8.533c0,5.12,3.413,8.533,8.533,8.533h53.76
				c5.12,0,9.387-3.413,9.387-8.533C190.147,454.68,186.733,451.267,181.613,451.267z"/>
		</g>
	</g>
</g>
<g>
</g>
<g>
</g>
<g>
</g>
<g>
</g>
<g>
</g>
<g>
</g>
<g>
</g>
<g>
</g>
<g>
</g>
<g>
</g>
<g>
</g>
<g>
</g>
<g>
</g>
<g>
</g>
<g>
</g>
</svg>
