<?xml version="1.0" encoding="iso-8859-1"?>
<!-- Generator: Adobe Illustrator 18.0.0, SVG Export Plug-In . SVG Version: 6.00 Build 0)  -->
<!DOCTYPE svg PUBLIC "-//W3C//DTD SVG 1.1//EN" "http://www.w3.org/Graphics/SVG/1.1/DTD/svg11.dtd">
<svg version="1.1" id="Capa_1" xmlns="http://www.w3.org/2000/svg" xmlns:xlink="http://www.w3.org/1999/xlink" x="0px" y="0px"
	 viewBox="0 0 469.302 469.302" style="enable-background:new 0 0 469.302 469.302;" xml:space="preserve">
<path d="M410.696,389.944L388.091,138.7c-1.521-20.1-13.038-37.778-30.811-47.291l-19.791-10.596
	c-0.121-5.974-0.906-22.834-5.723-42.588c-0.01-0.049-0.021-0.099-0.032-0.148h-0.001c-0.032-0.151-0.07-0.303-0.115-0.451
	c-1.281-4.751-4.387-8.904-9.231-12.346c-20.15-14.31-41.476-20.64-58.115-23.361c-15.63-2.557-43.61-2.557-59.241,0
	c-16.638,2.722-37.963,9.051-58.111,23.36c-4.788,3.4-7.877,7.496-9.186,12.178c-0.087,0.256-0.153,0.517-0.199,0.783
	c-4.813,19.745-5.598,36.597-5.719,42.572L112.03,91.409c-17.769,9.51-29.29,27.188-30.815,47.22L58.607,390.012
	c-0.516,6.757,0.74,13.579,3.631,19.732l3.465,7.364l-0.922,19.367c-0.116,2.432,1.536,4.594,3.912,5.12l28.304,6.271
	c1.315,0.289,2.694,0.039,3.823-0.7c1.128-0.74,1.909-1.903,2.167-3.228l3.8-19.543c2.754-2.975,5.02-6.351,6.743-10.047
	c1.94-4.143,3.131-8.563,3.538-13.137l11.698-106.176c0.253,37.507,0.056,79.649-1.564,106.195
	c-0.542,8.878,3.481,17.182,10.196,22.396v30.554c0,2.341,1.624,4.369,3.909,4.88c30.535,6.826,61.941,10.239,93.346,10.239
	c31.405,0,62.809-3.413,93.338-10.239c2.285-0.511,3.909-2.539,3.909-4.88V423.63c6.716-5.215,10.74-13.519,10.197-22.397
	c-1.621-26.552-1.818-68.716-1.564-106.229l11.707,106.207c0.773,8.65,4.403,16.82,10.271,23.182l3.802,19.549
	c0.258,1.323,1.039,2.487,2.167,3.227c0.821,0.538,1.775,0.818,2.741,0.818c0.361,0,0.724-0.039,1.082-0.118l28.304-6.271
	c2.376-0.526,4.028-2.688,3.912-5.12l-0.922-19.367l3.463-7.36C409.949,403.624,411.209,396.801,410.696,389.944z M325.792,60.538
	c1.25,9.246,1.592,16.523,1.684,20.077c-17.595,13.22-40.992,22.206-59.996,27.889c6.083-3.754,12.575-7.943,18.977-12.393
	C305.584,82.816,318.646,71.022,325.792,60.538z M188.557,87.9c-13.675-9.505-24.24-18.401-31.298-26.214
	c18.914-12.12,38.783-17.11,53.592-19.101c13.762-1.85,33.919-1.88,47.796-0.001c14.772,2.001,34.533,7.002,53.402,19.1
	c-7.045,7.8-17.587,16.679-31.228,26.166c-19.311,13.43-39.499,24.455-46.169,28.003C227.993,112.31,207.862,101.318,188.557,87.9z
	 M147.283,40.476c0.008-0.033,0.016-0.065,0.022-0.099c0,0,0.001-0.003,0.001-0.005c0.004-0.017,0.008-0.033,0.011-0.05
	c0.003-0.011,0.006-0.021,0.009-0.031c0.648-2.476,2.459-4.783,5.384-6.86c16.991-12.066,35.168-17.986,50.034-20.847
	c18.056-3.474,45.816-3.507,63.953,0c14.821,2.866,32.923,8.791,49.899,20.847c2.925,2.077,4.736,4.386,5.384,6.86
	c0.003,0.01,0.006,0.021,0.009,0.031c0.011,0.052,0.022,0.104,0.035,0.154c0,0.003,0.001,0.006,0.002,0.009
	c0.876,3.604-0.454,8.1-3.797,13.287c-21.157-13.805-43.157-19.256-59.345-21.313c-12.846-1.632-35.61-1.632-48.45-0.001
	c-16.187,2.056-38.192,7.507-59.354,21.316C147.732,48.583,146.402,44.082,147.283,40.476z M143.51,60.533
	c7.146,10.485,20.21,22.282,39.34,35.578c6.409,4.455,12.91,8.649,19,12.407c-19.001-5.678-42.404-14.665-60.021-27.905
	C141.918,77.062,142.257,69.793,143.51,60.533z M74.97,432.744l0.508-10.667l20.814,3.903l-2.142,11.014L74.97,432.744z
	 M147.398,450.158v-21.707c57.097,14.967,117.407,14.967,174.502,0v21.707C264.734,462.351,204.574,462.351,147.398,450.158z
	 M375.149,436.994l-2.142-11.014l20.815-3.903l0.508,10.667L375.149,436.994z M398.013,405.487l-2.906,6.175l-26.164,4.906
	c-3.846-4.589-6.219-10.284-6.747-16.289c-0.003-0.036-0.007-0.073-0.011-0.109l-20.501-185.994
	c-0.288-2.616-2.586-4.567-5.184-4.447c-2.629,0.112-4.721,2.243-4.784,4.874c-0.032,1.293-3.096,130.003,0.4,187.24
	c0.473,7.739-4.637,14.797-12.148,16.781c-55.816,14.744-114.822,14.744-170.639,0c-7.512-1.984-12.62-9.042-12.146-16.781
	c3.494-57.237,0.432-185.947,0.4-187.24c-0.064-2.631-2.156-4.762-4.785-4.874c-2.652-0.118-4.896,1.831-5.184,4.447
	l-20.492,185.994c-0.004,0.037-0.008,0.074-0.011,0.111c-0.301,3.425-1.188,6.731-2.643,9.836c-1.09,2.339-2.467,4.5-4.108,6.453
	l-26.169-4.907l-2.904-6.172c-2.157-4.591-3.094-9.68-2.716-14.649L91.18,139.457c1.271-16.677,10.829-31.343,25.571-39.232
	L136.92,89.42c15.234,11.187,35.707,20.721,60.943,28.364c0.947,0.287,1.88,0.563,2.805,0.834v140.267c0,2.762,2.238,5,5,5
	s5-2.238,5-5V121.378c12.933,3.35,22.011,4.868,23.104,5.046c0.286,0.051,0.58,0.077,0.877,0.077c0.002,0,0.004,0,0.006,0
	c0.298,0,0.591-0.026,0.877-0.077c1.095-0.178,10.172-1.697,23.105-5.046v137.508c0,2.762,2.238,5,5,5s5-2.238,5-5V118.619
	c0.925-0.271,1.858-0.547,2.805-0.834c25.234-7.643,45.706-17.176,60.94-28.362l20.178,10.803
	c14.743,7.892,24.298,22.556,25.565,39.3l22.604,251.239C401.108,395.827,400.169,400.916,398.013,405.487z"/>
<g>
</g>
<g>
</g>
<g>
</g>
<g>
</g>
<g>
</g>
<g>
</g>
<g>
</g>
<g>
</g>
<g>
</g>
<g>
</g>
<g>
</g>
<g>
</g>
<g>
</g>
<g>
</g>
<g>
</g>
</svg>
