<?xml version="1.0" encoding="iso-8859-1"?>
<!-- Generator: Adobe Illustrator 19.0.0, SVG Export Plug-In . SVG Version: 6.00 Build 0)  -->
<svg version="1.1" id="Capa_1" xmlns="http://www.w3.org/2000/svg" xmlns:xlink="http://www.w3.org/1999/xlink" x="0px" y="0px"
	 viewBox="0 0 395.921 395.921" style="enable-background:new 0 0 395.921 395.921;" xml:space="preserve">
<path d="M393.981,96.651c-1.643-12.322-1.643-33.143,0-45.464l1.656-12.421c1.153-8.647-1.233-16.861-6.72-23.128
	c-5.487-6.267-13.313-9.719-22.038-9.719h-320c-8.699,0-16.55,3.439-22.108,9.683c-5.559,6.245-8.065,14.442-7.057,23.083
	l1.438,12.323c1.449,12.419,1.449,33.404,0,45.823l-1.438,12.324c-1.008,8.64,1.499,16.837,7.057,23.082
	c5.558,6.244,13.41,9.683,22.108,9.683h32.857L9.795,310.845l0,0.001l-9.184,22.171c-1.691,4.082,0.248,8.762,4.33,10.453
	c1.001,0.415,2.038,0.611,3.059,0.611c3.139,0,6.118-1.86,7.394-4.94l6.123-14.782l7.391,3.062l-6.123,14.782
	c-1.691,4.082,0.248,8.762,4.33,10.453c1.001,0.415,2.038,0.611,3.059,0.611c3.139,0,6.118-1.86,7.394-4.94l6.123-14.782
	l7.391,3.061l-6.123,14.782c-1.691,4.082,0.248,8.762,4.33,10.453c1.001,0.415,2.038,0.611,3.059,0.611
	c3.139,0,6.118-1.86,7.394-4.94l6.123-14.782l7.391,3.062l-6.123,14.782c-1.691,4.082,0.248,8.762,4.33,10.453
	c1.001,0.415,2.038,0.611,3.059,0.611c3.139,0,6.118-1.86,7.394-4.94l6.123-14.782l7.391,3.061l-6.123,14.782
	c-1.691,4.082,0.248,8.762,4.33,10.453c1.001,0.415,2.038,0.611,3.059,0.611c3.139,0,6.118-1.86,7.394-4.94l6.123-14.782
	l7.391,3.062l-6.123,14.782c-1.691,4.082,0.248,8.762,4.33,10.453c1.001,0.415,2.038,0.611,3.059,0.611
	c3.139,0,6.118-1.86,7.394-4.94l9.183-22.17c0,0,0,0,0,0l65.309-157.533l31.569,75.539l9.181,22.166
	c1.275,3.081,4.255,4.94,7.394,4.94c1.021,0,2.058-0.196,3.059-0.611c4.082-1.691,6.021-6.371,4.329-10.453l-6.123-14.782
	l7.391-3.062l6.123,14.782c1.275,3.081,4.255,4.94,7.394,4.94c1.021,0,2.058-0.196,3.059-0.611
	c4.082-1.691,6.021-6.371,4.329-10.453l-6.123-14.782l7.392-3.062l6.123,14.782c1.275,3.081,4.254,4.94,7.394,4.94
	c1.021,0,2.058-0.196,3.059-0.611c4.082-1.691,6.021-6.371,4.329-10.453l-6.123-14.782l7.391-3.062l6.123,14.782
	c1.275,3.081,4.254,4.94,7.394,4.94c1.021,0,2.058-0.196,3.059-0.611c4.082-1.691,6.021-6.371,4.329-10.453l-6.123-14.782
	l7.392-3.062l6.123,14.782c1.275,3.081,4.255,4.94,7.394,4.94c1.021,0,2.058-0.196,3.059-0.611
	c4.082-1.691,6.021-6.371,4.329-10.453l-6.123-14.782l7.392-3.062l6.123,14.782c1.275,3.081,4.255,4.94,7.394,4.94
	c1.021,0,2.058-0.196,3.059-0.611c4.082-1.691,6.021-6.371,4.329-10.453l-9.181-22.165c-0.002-0.005-0.003-0.01-0.006-0.016
	l-36.097-86.919h45.015c8.725,0,16.551-3.452,22.038-9.719c5.486-6.267,7.873-14.481,6.72-23.128L393.981,96.651z M35.659,55.964
	l1.999,1.044c2.191,1.145,4.787,1.212,7.034,0.184l14.154-6.477l14.152,6.477c2.114,0.968,4.545,0.968,6.658,0l14.15-6.476
	l14.145,6.476c2.114,0.967,4.545,0.969,6.66,0l14.149-6.476l14.147,6.476c2.114,0.969,4.545,0.968,6.66,0l14.146-6.476l14.145,6.476
	c2.114,0.967,4.545,0.968,6.66,0l14.147-6.476l14.145,6.476c2.115,0.968,4.547,0.968,6.66,0l14.142-6.475l14.143,6.475
	c2.113,0.968,4.545,0.968,6.66,0l14.146-6.476l14.146,6.476c2.114,0.968,4.544,0.968,6.66,0l14.146-6.476l14.145,6.476
	c2.115,0.968,4.545,0.968,6.66,0l14.145-6.476l14.144,6.476c1.058,0.484,2.193,0.726,3.33,0.726s2.272-0.242,3.33-0.726
	l14.224-6.512l4.237,1.847c-1.112,10.844-1.267,25.458-0.461,37.345l-0.661-0.288c-2.084-0.909-4.458-0.887-6.526,0.06
	l-14.144,6.476l-14.144-6.476c-2.115-0.968-4.545-0.968-6.66,0l-14.145,6.476l-14.145-6.476c-2.115-0.968-4.545-0.968-6.66,0
	l-14.146,6.476l-14.146-6.476c-2.115-0.968-4.545-0.968-6.66,0l-14.146,6.476l-14.143-6.476c-2.113-0.968-4.547-0.968-6.66,0
	l-14.142,6.475l-14.145-6.475c-2.115-0.968-4.545-0.968-6.66,0l-14.147,6.476l-14.145-6.476c-2.115-0.967-4.545-0.968-6.66,0
	l-14.146,6.476l-14.147-6.476c-2.114-0.969-4.545-0.967-6.659,0l-14.148,6.476l-14.145-6.476c-2.114-0.967-4.545-0.968-6.659,0
	l-14.15,6.477l-14.152-6.477c-2.114-0.968-4.544-0.968-6.658,0l-14.2,6.498l-5.781-2.573C36.428,82.302,36.467,67.559,35.659,55.964
	z M36.723,26.239c2.48-2.787,6.088-4.321,10.157-4.321h320c4.044,0,7.596,1.512,10,4.258c2.271,2.594,3.297,6.061,2.955,9.816
	l-3.232-1.408c-2.084-0.908-4.458-0.887-6.526,0.06l-14.144,6.476l-14.144-6.476c-2.115-0.968-4.545-0.968-6.66,0l-14.145,6.476
	l-14.145-6.476c-2.115-0.968-4.545-0.968-6.66,0l-14.146,6.476l-14.146-6.476c-2.115-0.968-4.545-0.968-6.66,0l-14.146,6.476
	l-14.143-6.476c-2.113-0.968-4.547-0.968-6.66,0l-14.142,6.475l-14.145-6.475c-2.115-0.968-4.545-0.968-6.66,0l-14.147,6.476
	l-14.145-6.476c-2.115-0.968-4.545-0.968-6.66,0l-14.146,6.476l-14.147-6.476c-2.114-0.969-4.545-0.967-6.659,0l-14.148,6.476
	l-14.145-6.476c-2.114-0.968-4.545-0.967-6.659,0l-14.15,6.477l-14.152-6.477c-2.114-0.968-4.544-0.968-6.658,0l-13.921,6.37
	l-7.988-4.174l-0.001-0.01C33.136,32.787,34.242,29.027,36.723,26.239z M97.055,141.918h13.135
	c-0.823,1.335-1.247,2.893-1.188,4.486l0.57,15.546l-11.395,10.588c-1.704,1.583-2.634,3.83-2.549,6.154l0.57,15.543l-11.396,10.591
	c-1.703,1.583-2.633,3.829-2.548,6.153l0.569,15.546l-11.396,10.592c-1.703,1.583-2.633,3.829-2.548,6.153l0.569,15.546
	l-11.395,10.589c-1.704,1.583-2.634,3.829-2.549,6.153l0.57,15.545l-11.395,10.589c-1.704,1.583-2.634,3.83-2.549,6.153l0.288,7.852
	l-14.781-6.122L97.055,141.918z M271.361,153.752l11.396,10.592l-0.569,15.547c-0.086,2.324,0.845,4.57,2.548,6.153l11.396,10.589
	l-0.57,15.545c-0.085,2.324,0.846,4.57,2.55,6.153l11.395,10.589l-0.422,11.512l-5.908,2.447c-0.004,0.001-0.007,0.002-0.011,0.004
	s-0.007,0.003-0.01,0.005l-22.157,9.178c-0.002,0.001-0.004,0.001-0.006,0.002s-0.004,0.002-0.005,0.003l-6.459,2.675l0.288-7.852
	c0.086-2.324-0.845-4.57-2.548-6.153l-11.395-10.589l0.57-15.545c0.085-2.324-0.846-4.57-2.549-6.153l-11.396-10.589l0.569-15.546
	c0.085-2.324-0.846-4.569-2.549-6.152l-11.396-10.592l0.57-15.547c0.088-2.413-0.918-4.737-2.738-6.323l-2.048-1.785h39.367
	l-0.439,5.315C268.633,149.679,269.564,152.082,271.361,153.752z M123.725,349.376l-14.236-5.897l-0.422-11.511l11.395-10.589
	c1.704-1.583,2.634-3.829,2.549-6.153l-0.57-15.545l11.395-10.589c1.704-1.583,2.634-3.829,2.549-6.153l-0.569-15.546l11.396-10.592
	c1.703-1.583,2.633-3.829,2.548-6.153l-0.569-15.547l11.396-10.591c1.703-1.583,2.634-3.829,2.548-6.153l-0.57-15.543l11.394-10.588
	c1.704-1.583,2.634-3.829,2.549-6.153l-0.569-15.546l11.396-10.592c1.703-1.583,2.633-3.829,2.548-6.153l-0.435-11.863h20.283
	L123.725,349.376z M173.438,141.918l0.322,8.789l-11.396,10.592c-1.703,1.583-2.633,3.829-2.548,6.153l0.569,15.545l-11.394,10.588
	c-1.704,1.583-2.634,3.83-2.549,6.154l0.57,15.543l-11.396,10.591c-1.703,1.583-2.633,3.829-2.548,6.153l0.569,15.547
	l-11.396,10.592c-1.703,1.583-2.633,3.829-2.548,6.153l0.569,15.546l-11.395,10.589c-1.704,1.583-2.634,3.83-2.549,6.153
	l0.57,15.545L95.492,322.74c-1.704,1.583-2.634,3.829-2.549,6.153l0.288,7.852l-28.635-11.861c0,0-0.001-0.001-0.002-0.001
	c0,0-0.001,0-0.002-0.001l-5.916-2.45l-0.422-11.512l11.395-10.589c1.704-1.583,2.634-3.83,2.549-6.153l-0.57-15.545l11.395-10.589
	c1.704-1.583,2.634-3.829,2.549-6.153l-0.569-15.547l11.396-10.592c1.703-1.583,2.633-3.829,2.548-6.153l-0.569-15.546
	l11.396-10.591c1.703-1.583,2.634-3.829,2.548-6.153l-0.57-15.542l11.395-10.588c1.704-1.583,2.634-3.829,2.549-6.153l-0.579-15.788
	l7.116-7.318H173.438z M218.196,163.279L218,168.647c-0.086,2.324,0.845,4.57,2.548,6.153l11.396,10.592l-0.569,15.547
	c-0.085,2.324,0.846,4.57,2.549,6.153l11.396,10.589l-0.569,15.545c-0.086,2.324,0.845,4.57,2.548,6.153l11.395,10.589
	l-0.422,11.512l-14.255,5.905l-34.627-82.856L218.196,163.279z M340.114,227.579l-14.772,6.119l0.288-7.852
	c0.085-2.324-0.846-4.57-2.55-6.153l-11.395-10.589l0.569-15.545c0.086-2.324-0.845-4.57-2.548-6.153l-11.396-10.589l0.569-15.546
	c0.086-2.324-0.845-4.57-2.548-6.153L285.1,144.678l0.228-2.76h19.211L340.114,227.579z M376.88,121.66
	c-2.404,2.746-5.956,4.258-10,4.258h-56.919c-0.025,0-0.049,0-0.073,0H46.88c-4.07,0-7.677-1.535-10.158-4.321
	c-2.48-2.787-3.587-6.548-3.116-10.59l0.087-0.745l4.417,1.966c2.097,0.933,4.494,0.92,6.581-0.035l14.154-6.477l14.152,6.477
	c2.114,0.968,4.545,0.968,6.658,0l14.15-6.476l14.145,6.476c2.114,0.968,4.545,0.968,6.66,0l14.149-6.476l14.147,6.476
	c2.114,0.969,4.545,0.968,6.66,0l14.146-6.476l14.145,6.476c2.114,0.968,4.545,0.968,6.66,0l14.147-6.476l14.145,6.476
	c2.115,0.968,4.547,0.968,6.66,0l14.142-6.475l14.143,6.475c2.113,0.968,4.545,0.968,6.66,0l14.146-6.476l14.146,6.476
	c2.114,0.968,4.544,0.968,6.66,0l14.146-6.476l14.145,6.476c2.115,0.968,4.545,0.968,6.66,0l14.145-6.476l14.144,6.476
	c1.058,0.484,2.193,0.726,3.33,0.726s2.272-0.242,3.33-0.726l14.224-6.512l5.901,2.571l0.391,2.935
	C380.312,115.194,379.283,118.914,376.88,121.66z"/>
<g>
</g>
<g>
</g>
<g>
</g>
<g>
</g>
<g>
</g>
<g>
</g>
<g>
</g>
<g>
</g>
<g>
</g>
<g>
</g>
<g>
</g>
<g>
</g>
<g>
</g>
<g>
</g>
<g>
</g>
</svg>
