<?xml version="1.0" encoding="UTF-8" standalone="no"?>
<svg
   version="1.1"
   id="Capa_1"
   x="0px"
   y="0px"
   viewBox="0 0 450.78 450.78"
   xml:space="preserve"
   xmlns="http://www.w3.org/2000/svg"
   xmlns:svg="http://www.w3.org/2000/svg"><defs
   id="defs8" />
   <path
   id="rect2"
   d="M 0 0 L 0 450.7793 L 450.7793 450.7793 L 450.7793 0 L 0 0 z M 192.94141 6.8125 L 193.53516 7.0136719 C 214.08114 13.979665 236.69844 13.979571 257.23242 7.0175781 L 257.83789 6.8125 C 262.89389 5.0825017 371.21094 54.617188 371.21094 54.617188 C 372.07894 55.007187 372.81689 55.637595 373.33789 56.433594 L 449.96289 173.34375 C 451.24789 175.30575 450.99637 177.89622 449.35938 179.57422 C 448.05938 180.90822 416.86327 212.38028 359.98633 225.19727 C 357.95033 225.65627 355.84022 224.80073 354.69922 223.05273 L 340.08203 200.63672 L 338.60938 426.64062 C 338.59438 428.95262 336.99609 430.95352 334.74609 431.47852 C 298.97513 439.83351 262.18359 444.01172 225.39062 444.01172 C 188.59766 444.01172 151.80417 439.83351 116.0332 431.47852 C 113.78221 430.95352 112.18492 428.95262 112.16992 426.64062 L 110.69727 200.63672 L 96.080078 223.05273 C 94.939079 224.80173 92.829967 225.65027 90.792969 225.19727 C 33.916026 212.38028 2.7199206 180.90822 1.4199219 179.57422 C -0.21707649 177.89622 -0.46763934 175.30575 0.81835938 173.34375 L 77.439453 56.433594 C 77.961453 55.637595 78.70036 55.008187 79.568359 54.617188 C 79.568359 54.617187 187.88741 5.0825017 192.94141 6.8125 z " />
   
</svg>
