<?xml version="1.0" encoding="UTF-8" standalone="no"?>
<!-- Generator: Adobe Illustrator 18.0.0, SVG Export Plug-In . SVG Version: 6.00 Build 0)  -->

<svg
   version="1.1"
   id="Capa_1"
   x="0px"
   y="0px"
   viewBox="0 0 470.78 470.78"
   style="enable-background:new 0 0 450.78 450.78;"
   xml:space="preserve"
   xmlns="http://www.w3.org/2000/svg"
   xmlns:svg="http://www.w3.org/2000/svg"
>
   <g style="transform: translate( 10px, 10px)">
      <path
         d="M 449.962,173.343 373.338,56.434 c -0.521,-0.796 -1.26,-1.427 -2.128,-1.817 0,0 -108.317,-49.534 -113.373,-47.804 l -0.604,0.205 C 236.699,13.98 214.081,13.98 193.535,7.014 L 192.942,6.813 C 187.888,5.083 79.568,54.617 79.568,54.617 78.7,55.008 77.962,55.638 77.44,56.434 L 0.818,173.343 c -1.286,1.962 -1.035,4.553 0.602,6.231 1.3,1.334 32.496,32.807 89.373,45.624 2.037,0.453 4.146,-0.397 5.287,-2.146 l 14.618,-22.415 1.472,226.004 c 0.015,2.312 1.612,4.312 3.863,4.837 35.771,8.355 72.564,12.533 109.357,12.533 36.793,0 73.586,-4.178 109.357,-12.533 2.25,-0.525 3.848,-2.525 3.863,-4.837 l 1.472,-226.004 14.618,22.415 c 1.141,1.748 3.251,2.605 5.287,2.146 56.877,-12.817 88.073,-44.29 89.373,-45.624 1.637,-1.678 1.887,-4.269 0.602,-6.231 z"
         id="path2" fill="#fff" style="transform: scale(0.999); transform-origin: center" />
      <path
         d="M 449.962,173.343 373.338,56.434 c -0.521,-0.796 -1.26,-1.427 -2.128,-1.817 0,0 -108.317,-49.534 -113.373,-47.804 l -0.604,0.205 C 236.699,13.98 214.081,13.98 193.535,7.014 L 192.942,6.813 C 187.888,5.083 79.568,54.617 79.568,54.617 78.7,55.008 77.962,55.638 77.44,56.434 L 0.818,173.343 c -1.286,1.962 -1.035,4.553 0.602,6.231 1.3,1.334 32.496,32.807 89.373,45.624 2.037,0.453 4.146,-0.397 5.287,-2.146 l 14.618,-22.415 1.472,226.004 c 0.015,2.312 1.612,4.312 3.863,4.837 35.771,8.355 72.564,12.533 109.357,12.533 36.793,0 73.586,-4.178 109.357,-12.533 2.25,-0.525 3.848,-2.525 3.863,-4.837 l 1.472,-226.004 14.618,22.415 c 1.141,1.748 3.251,2.605 5.287,2.146 56.877,-12.817 88.073,-44.29 89.373,-45.624 1.637,-1.678 1.887,-4.269 0.602,-6.231 z m -340.356,10.663 -11.193,17.162 -5.637,8.644 -3.156,4.84 C 47.209,204.314 20.058,182.852 11.496,175.296 l 3.781,-5.77 63.204,-96.436 8.577,-10.879 72.689,-32.746 c 14.53487,-6.547879 25.01105,-11.522987 25.741,-12.239 0.419,-0.411 1.404,-1.193 2.826,-1.193 0.426,0 0.891,0.07 1.392,0.241 l 0.63,0.215 c 22.605,7.663 47.503,7.663 70.098,0.004 l 0.642,-0.219 c 2.171,-0.741 3.672,0.417 4.217,0.952 1.02836,1.009492 17.11917,8.247772 25.741,12.239 24.11615,11.163885 72.689,32.746 72.689,32.746 l 8.576,10.88 57.714,88.058 5.49,8.377 3.781,5.769 c -8.567,7.56 -35.716,29.02 -78.124,39.357 l -3.157,-4.84 c 0,0 -16.36095,-25.33695 -16.829,-25.805 -0.46805,-0.46805 -8.19112,-3.47818 -9.483,-3.751 -0.55,0.811 -1.014,1.677 -1.299,2.616 -0.116,0.382 -0.199,0.765 -0.201,1.08 l -1.555,238.667 c -67.635,15.191 -138.855,15.191 -206.492,0 L 120.59,183.952 c -0.002,-0.315 -0.086,-0.698 -0.201,-1.08 -0.285,-0.938 -0.748,-1.804 -1.299,-2.616"
         id="path2" />
   </g>

</svg>